# xmcd
#
# Track frame offsets:
#	150
#	5364
#	27193
#	42366
#	60428
#	76912
#	95204
#	111268
#	128250
#	141910
#	160282
#	184550
#	215349
#	238666
#	250130
#	266554
#	303716
#	320815
#
# Disc length: 4484 seconds
#
# Revision: 2
# Processed by: cddbd v1.5.1PL2 Copyright (c) Steve Scherf et al.
# Submitted via: EasyCDDAExtractor 8.0.2.1
#
DISCID=f5118212
DTITLE=Alice Cooper - Wembley Arena London 23-11-86
DYEAR=1986
DGENRE=Hard Rock
TTITLE0=Intro
TTITLE1=Welcome To My Nightmare
TTITLE2=Billion Dollar Babies
TTITLE3=Years Ago - No More Mr Nice Guy
TTITLE4=Be My Lover
TTITLE5=I'm Eighteen
TTITLE6=The World Needs Guts
TTITLE7=Give It Up
TTITLE8=Cold Ethyl
TTITLE9=Only Women Bleed
TTITLE10=Go To Hell
TTITLE11=Ballad Of Dwight Fry
TTITLE12=Teenage Frankenstein
TTITLE13=Sick Things
TTITLE14=I Love The Dead
TTITLE15=School's Out
TTITLE16=Elected
TTITLE17=Under My Wheels
EXTD=
EXTT0=
EXTT1=
EXTT2=
EXTT3=
EXTT4=
EXTT5=
EXTT6=
EXTT7=
EXTT8=
EXTT9=
EXTT10=
EXTT11=
EXTT12=
EXTT13=
EXTT14=
EXTT15=
EXTT16=
EXTT17=
PLAYORDER=
